<?xml version="1.0" standalone="no"?>
<!DOCTYPE svg PUBLIC "-//W3C//DTD SVG 20010904//EN"
 "http://www.w3.org/TR/2001/REC-SVG-20010904/DTD/svg10.dtd">
<svg version="1.0" xmlns="http://www.w3.org/2000/svg"
 width="96.000000pt" height="96.000000pt" viewBox="0 0 96.000000 96.000000"
 preserveAspectRatio="xMidYMid meet">

<g transform="translate(0.000000,96.000000) scale(0.100000,-0.100000)"
fill="#000000" stroke="none">
<path d="M395 748 c-187 -5 -344 -13 -349 -18 -12 -12 -19 -295 -9 -350 8 -44
9 -45 53 -50 44 -5 45 -6 50 -46 3 -22 16 -53 28 -69 12 -15 22 -34 22 -41 0
-7 12 -22 26 -33 81 -64 179 33 126 124 -12 19 -18 35 -14 35 4 0 117 -11 252
-25 327 -33 300 -35 300 19 0 35 4 45 20 49 20 5 20 12 18 209 l-3 203 -90 1
c-49 1 -243 -3 -430 -8z m404 -105 l41 -27 0 -75 c0 -75 -1 -76 -33 -97 -31
-19 -46 -20 -339 -19 -235 1 -310 4 -322 14 -12 10 -16 33 -16 90 0 71 2 79
28 104 31 30 47 31 399 35 l201 2 41 -27z m-521 -306 c17 -13 15 -72 -3 -91
-36 -36 -95 -23 -110 24 -19 60 60 108 113 67z m52 -127 c0 -62 -58 -92 -100
-50 -28 28 -25 40 9 40 20 0 37 9 53 29 29 35 38 31 38 -19z"/>
<path d="M405 615 c-54 -53 -11 -155 65 -155 44 0 90 47 90 92 0 77 -101 118
-155 63z"/>
<path d="M212 588 c-28 -28 -2 -88 38 -88 40 0 66 60 38 88 -7 7 -24 12 -38
12 -14 0 -31 -5 -38 -12z"/>
<path d="M655 580 c-15 -16 -17 -26 -9 -48 18 -51 94 -34 94 22 0 46 -52 62
-85 26z"/>
</g>
</svg>
